<svg id="Calque_1" data-name="Calque 1" xmlns="http://www.w3.org/2000/svg" viewBox="0 0 384 384"><defs><style>.cls-1{fill:#00f7f7;}</style></defs><path class="cls-1" d="M972,732H948.75a22.7,22.7,0,0,0-2.91-.58c-20.58-1.49-40.51-5.91-59.4-14.22C823.05,689.35,784.64,641.28,771,573.44c-1.41-7.06-2-14.29-3-21.44V528c.22-1,.48-1.92.64-2.89,1.81-10.94,2.86-22.07,5.52-32.8,18-72.64,79-128.88,152.79-141.36,7-1.18,14-2,21-2.95h24a19.51,19.51,0,0,0,2.88.63c34.37,2.68,65.91,13.64,94.1,33.41,43.79,30.71,70.53,72.6,80.1,125.28,1.28,7.09,2,14.29,2.92,21.43v22.5c-.22,1.2-.47,2.4-.64,3.61-1.29,8.75-2.11,17.61-3.92,26.25-15.69,75-78.58,135.24-154.39,147.95C986.06,730.23,979,731,972,732Zm163.51-191.32c.39-96.59-78-175.76-174.5-176.19a175.36,175.36,0,0,0-176.48,173C783.17,635.1,861,714.55,957.83,715.39,1056.2,716.24,1135.11,638.22,1135.51,540.68Z" transform="translate(-768 -348)"/><path class="cls-1" d="M960.13,396.49a143.5,143.5,0,0,1,141,121c12.6,79.65-40.15,147.93-114,162.67C948,688,911.94,680.11,879,657.83c-3.32-2.24-5.16-5.16-4.29-9.18.75-3.49,3.1-6,6.63-6.2a12.85,12.85,0,0,1,7.25,2.12A127,127,0,0,0,939.22,665c63.38,10.38,130.07-30,144.4-97.72,11-52.11-10.29-103.9-53.73-132.69-75.9-50.29-179.22-5.79-194.46,83.8-5.68,33.42,1.24,64.22,19.67,92.59a14,14,0,0,1,2.43,7.19c0,3.7-2.54,6.19-6.19,7.06-3.88.92-6.82-.77-9-3.92a142.17,142.17,0,0,1-18.12-36.42C796.69,501,850,413.36,937.43,398.88,944.92,397.64,952.56,397.27,960.13,396.49Z" transform="translate(-768 -348)"/><path class="cls-1" d="M986.6,462.17a7.1,7.1,0,0,1,0,1.13c-1,6.6,1.35,10.57,7.41,14.34,17.59,10.91,22.19,34.4,11.18,52.13-3.26,5.25-3.09,5.68,1.75,9.35,13.08,9.9,18.64,23.09,15.38,39.15-3.29,16.22-13.64,26.23-29.76,30.11-5.55,1.33-5.93,1.68-5.95,7.54,0,3.37.11,6.76-.12,10.12-.32,4.86-3.69,7.92-8.29,7.84-4.4-.09-7.64-3.14-7.91-7.84-.23-3.74,0-7.5-.14-11.25-.1-4-1.22-5.18-5.16-5.21q-11.06-.08-22.12,0c-4.05,0-5.24,1.3-5.29,5.47-.05,3.62.07,7.25-.05,10.87a8.15,8.15,0,0,1-8,8.27,8.34,8.34,0,0,1-8.39-7.93c-.13-1.37-.06-2.75-.06-4.13,0-13.81,1.26-12.56-12.39-12.57-1.12,0-2.25,0-3.37,0-5.42-.3-9.14-3.9-8.92-8.61s3.8-7.74,9.2-7.81c3.49,0,7,0,10.49,0,3.32,0,5-1.61,5-5.1q-.06-48,0-96c0-3.48-1.66-5.07-5-5.11-3.75,0-7.5.05-11.25,0-4.8-.13-8.23-3.35-8.45-7.78a8.21,8.21,0,0,1,7.78-8.49c3.48-.3,7-.13,10.49-.15,5.67,0,6.39-.76,6.4-6.57,0-3-.06-6,0-9,.13-5.43,3.63-9.16,8.42-9.06s7.93,3.67,8,9c.05,3.5,0,7,0,10.5,0,3.34,1.42,5.15,4.92,5.13,7.63,0,15.25,0,22.88,0,3.33,0,4.77-1.7,4.8-4.86,0-3.62-.08-7.25.06-10.87.2-5.4,3.46-8.68,8.33-8.6,4.7.08,7.77,3.3,8,8.56.12,2.49,0,5,0,7.49Zm-22.46,86.08c-7.12,0-14.24,0-21.36,0-3.38,0-5.2,1.43-5.21,4.87q0,17.61,0,35.22c0,3,1.65,4.74,4.61,4.74,14.61,0,29.25.46,43.83-.23a21.8,21.8,0,0,0,20.83-23c-.6-12.53-10.25-21.5-23.22-21.55C977.13,548.23,970.63,548.25,964.14,548.25Zm-26.58-39.19c0,5.49,0,11,0,16.47,0,5.07,1.13,6.21,6.09,6.22,9.24,0,18.48,0,27.71,0,12.93,0,22.89-9.31,23.2-21.51.32-12.9-9-22.86-22.21-23.25-9.85-.3-19.72-.13-29.58-.06-3.78,0-5.15,1.49-5.19,5.28C937.52,497.82,937.56,503.44,937.56,509.06Z" transform="translate(-768 -348)"/></svg>