<svg id="Calque_1" data-name="Calque 1" xmlns="http://www.w3.org/2000/svg" viewBox="0 0 362.4 382.53"><defs><style>.cls-1{fill:#db0bff;}</style></defs><path class="cls-1" d="M132.53,264.88c1.69,2.54,3.05,4.61,4.44,6.66q21.12,31.15,42.27,62.31c4.37,6.42,6.82,13.37,5.91,21.16-1.63,14-9.87,23.31-23.15,26.67-11.9,3-25.15-2.36-32.86-13.64Q103.9,331,78.83,294c-1-1.44-2-2.84-2.6-3.69-6.44,2.19-12.38,5.07-18.62,6.19C22.61,302.74-1.13,272,0,246.39q1.13-24.33,21-38.24c9.93-6.93,20.11-13.51,30-20.46a17,17,0,0,0,5.3-6Q85.07,123.86,113.53,65.9c4.67-9.43,12.5-14.32,22.73-15.43,12.71-1.42,24.15,2.82,35,8.72,20.11,10.9,36.35,26.37,50.63,43.93,20.45,25.15,36.46,52.76,44.88,84.32,3.6,13.49,5.52,27.19,2.67,41.13-1.76,8.55-5.43,16.05-12.45,21.6A28.27,28.27,0,0,1,241.11,256q-52.87,4.1-105.71,8.41C134.72,264.47,134,264.62,132.53,264.88ZM121.89,92.47c.49,4.41.84,8.64,1.46,12.84a71.47,71.47,0,0,0,2,9.13c12.6,44.09,37.12,80.38,72.37,109.45,9.77,8.06,20.64,14.41,33.27,17.26,6.67,1.51,12.06-.64,16.76-5.08,3.86-3.64,5.81-8.37,6.8-13.49,1.83-9.5.91-18.93-1.11-28.26-4.18-19.27-12.71-36.71-23-53.37-13.78-22.4-30-42.7-51.06-58.79-9.47-7.25-19.55-13.45-31.35-16.24-13.45-3.18-23,3-25.25,16.65C122.26,85.85,122.17,89.24,121.89,92.47Zm78.37,152c-46.9-34.24-77.48-79-91.67-135.07a9.15,9.15,0,0,0-.78,1.17Q88.91,149,70,187.47c-1.07,2.17-.26,3.45.82,5,12.71,18.69,25.46,37.37,38,56.14,1.56,2.34,3.16,2.92,5.81,2.7,22.16-1.83,44.33-3.53,66.5-5.29C187.43,245.58,193.72,245,200.26,244.47ZM97,257.47c-13-19.15-25.73-37.89-38.61-56.84C48.09,207.7,38,214.31,28.16,221.42c-14,10.13-17.38,29-8.27,43.78,10,16.27,28.18,22.62,43.75,14C75.17,272.88,85.78,264.86,97,257.47Zm-9,23.79c1.63,2.46,3.12,4.74,4.65,7q24.3,35.79,48.57,71.59c3,4.52,7,7.49,12.51,7.85,6.43.43,11.48-2.2,14.68-7.8,3.38-5.91,2.67-11.72-1.09-17.26l-49.82-73.46c-2.09-3.08-5.4-4.11-8.54-2.08-7,4.49-13.81,9.3-20.93,14.14Z" transform="translate(0 0.03)"/><path class="cls-1" d="M284.18,103.94c-4.7,0-7.12-1.69-8.36-4.93s0-6.55,3.27-8.73c7.26-4.85,14.58-9.59,21.88-14.38l27.81-18.27c4.63-3,9-2.57,11.55,1.16S341.74,67,337,70.16q-24.21,15.91-48.48,31.76A26.63,26.63,0,0,1,284.18,103.94Z" transform="translate(0 0.03)"/><path class="cls-1" d="M353.78,163.57l-24.93-4.45-33.53-6c-5.52-1-8.59-4.73-7.53-9.16,1-4.24,4.66-6.44,9.57-5.57,12.78,2.25,25.54,4.59,38.31,6.89q9.94,1.78,19.9,3.54c4.35.76,7.19,4.08,6.79,8S358.55,163.63,353.78,163.57Z" transform="translate(0 0.03)"/><path class="cls-1" d="M258.74,7.85q-2.3,22.32-4.58,44.64c-.37,3.59-.7,7.19-1.15,10.78-.57,4.56-3.86,7.25-8.2,6.82-4-.39-6.79-3.73-6.36-8.19q2.72-27.72,5.64-55.43A7.12,7.12,0,0,1,251.8,0l.46.06A7.29,7.29,0,0,1,258.74,7.85Z" transform="translate(0 0.03)"/><path class="cls-1" d="M175.58,122.47a40,40,0,0,1,25.23,71.34,17,17,0,0,1-4.08,2.61,7.33,7.33,0,0,1-7.86-12,38,38,0,0,1,3.16-2.63A25.29,25.29,0,0,0,164.14,140c-1.22.63-2.35,1.42-3.59,2a7.29,7.29,0,0,1-9.71-3c-1.89-3.38-.85-7.44,2.53-9.85A39.8,39.8,0,0,1,175.58,122.47Z" transform="translate(0 0.03)"/></svg>