<svg id="Calque_1" data-name="Calque 1" xmlns="http://www.w3.org/2000/svg" viewBox="0 0 384 344.34"><defs><style>.cls-1{fill:#db0bff;}</style></defs><path class="cls-1" d="M1152,627a61.9,61.9,0,0,1-3,7.16c-4.77,8.38-12.22,12.15-21.73,12.15H1013.37c1.78,10.39,3.44,20.33,5.3,30.23.13.74,1.69,1.62,2.65,1.7,3.23.28,6.51,0,9.73.35a16.76,16.76,0,0,1-.34,33.37c-1,.09-2,.11-3,.11q-67.68,0-135.36,0c-9.94,0-16.64-5.37-18.15-14.36a16.62,16.62,0,0,1,13.93-19c3.45-.44,7-.13,10.47-.48,1-.1,2.62-1.15,2.78-2,1.85-9.79,3.48-19.63,5.25-29.94h-15.2c-6,0-12,0-18,0-5,0-7.75-2-7.8-5.59s2.68-5.64,7.67-5.64q58.68,0,117.36,0h133.86c12.93,0,17.4-5.11,15.92-18.49H778.59c.81,4.33.91,8.67,2.52,12.35,2,4.62,6.54,6.16,11.54,6.15q24.75,0,49.49,0a26.89,26.89,0,0,1,4.12.17,5,5,0,0,1,4.46,4.81c.27,2.82-.93,4.93-3.68,5.78a14.85,14.85,0,0,1-4.43.47q-24.18,0-48.37,0c-14,0-21.54-5.51-25.78-18.74-.07-.22-.3-.39-.46-.57V387c.45-1.14.91-2.27,1.35-3.41,3.6-9.23,10.25-14.51,20.16-15.53a41.93,41.93,0,0,1,4.49-.14h232.85c1.12,0,2.25,0,3.37.07,3.23.25,5,2.16,5.35,5.25.32,2.88-2,5.37-5.21,5.77a37.47,37.47,0,0,1-4.86.15h-231c-11.2,0-15.28,4.13-15.28,15.43v210.2h361.5V393.68c0-10.11-4.45-14.52-14.69-14.52q-33.37,0-66.74,0c-6.11,0-8.72-1.79-8.62-5.82s2.5-5.43,8.56-5.43c21.12,0,42.25.44,63.36-.15,14.72-.41,24.89,4.7,29.38,19.23Zm-150.06,19.55H918c-1.82,10.59-3.6,21-5.46,31.77h4.68q22.88,0,45.75,0a17.44,17.44,0,0,1,4.46.38c2.78.75,4.07,2.78,3.92,5.62a5,5,0,0,1-4.25,5,23.91,23.91,0,0,1-4.48.24H894.4a31.25,31.25,0,0,0-4.11.17c-3.21.42-5,2.44-5,5.55s1.88,5.09,5.11,5.44a30,30,0,0,0,3,.08h133.12a20.16,20.16,0,0,0,3.73-.21,5.47,5.47,0,0,0,.23-10.69,20.71,20.71,0,0,0-4.46-.33c-11,0-22,0-33,0-3.92,0-6.32-2.12-6.47-5.32s2.32-5.65,6.35-5.87c1.62-.09,3.25,0,4.87,0h9.67C1005.55,667.36,1003.75,657,1001.94,646.55Z" transform="translate(-768 -367.73)"/><path class="cls-1" d="M1072.23,528.37c-8.46,16.61-16.66,32.72-24.86,48.84-.4.78-.6,1.79-1.22,2.29-1.72,1.43-3.62,3.67-5.44,3.66s-4.39-1.94-5.34-3.71c-6.78-12.78-13.24-25.74-19.8-38.63-.62-1.22-1.27-2.42-2.28-4.34-2.54,5-5.07,9.36-7,14s-4.85,6.45-9.85,6.15c-6-.37-12-.07-18-.1-4.72,0-7.24-2-7.18-5.69s2.59-5.53,7.36-5.55,9.5-.14,14.24.06c2.45.1,3.79-.62,4.88-2.93,3-6.31,6.32-12.46,9.44-18.71,1.32-2.65,2.69-5.26,6.11-5.29s4.84,2.5,6.19,5.17q9.52,18.87,19.18,37.69c.6,1.19,1.23,2.36,2.09,4,.83-1.56,1.43-2.63,2-3.72q11.8-23.16,23.6-46.35c1.3-2.58,2.76-4.91,6-4.93s4.72,2.3,6,4.87c4.59,9.14,9.3,18.22,13.82,27.4,1,2.06,2.21,2.9,4.56,2.81,5.12-.19,10.25-.11,15.37,0,4.06.05,6.5,2.25,6.47,5.66s-2.43,5.52-6.56,5.55c-6.87,0-13.74-.06-20.61,0a6.86,6.86,0,0,1-6.82-4.23c-3.39-6.81-6.88-13.57-10.35-20.35C1073.61,530.89,1073,529.84,1072.23,528.37Z" transform="translate(-768 -367.73)"/><path class="cls-1" d="M1118.58,451.14q0,17.22,0,34.45c0,6.29-1.68,7.92-8,7.92-8.49,0-17,0-25.47,0-4.88,0-6.87-1.91-6.88-6.77q-.08-35.94,0-71.89c0-4.66,2-6.61,6.67-6.65,8.86-.08,17.72-.06,26.58,0,5.12,0,7.07,1.91,7.09,7C1118.63,427.17,1118.58,439.16,1118.58,451.14Zm-11.49-31.46h-17.41v62.38h17.41Z" transform="translate(-768 -367.73)"/><path class="cls-1" d="M971.19,458.37c0-9.49,0-19,0-28.46,0-4.84,2-6.83,6.8-6.85q13.49-.07,27,0c4.52,0,6.65,2.13,6.66,6.71q.07,28.46,0,56.91c0,4.8-2.08,6.8-6.88,6.82q-13.49.08-27,0c-4.58,0-6.55-2-6.57-6.68C971.16,477.34,971.19,467.85,971.19,458.37Zm11.52-23.94v47.62h17.4V434.43Z" transform="translate(-768 -367.73)"/><path class="cls-1" d="M1065.24,466.62c0,6.75,0,13.51,0,20.25-.06,4.66-2,6.61-6.65,6.63q-13.5.08-27,0c-4.62,0-6.67-2-6.7-6.61q-.11-20.62,0-41.25c0-4.47,2-6.39,6.49-6.44q13.7-.15,27.38,0c4.67.06,6.43,2,6.47,6.8C1065.29,452.87,1065.24,459.75,1065.24,466.62Zm-11.45-16h-17.44V482h17.44Z" transform="translate(-768 -367.73)"/><path class="cls-1" d="M870.76,483.05H809.68a25.21,25.21,0,0,1-3.37-.07,5.2,5.2,0,0,1-4.91-5.23,5.12,5.12,0,0,1,4-5.59,17.32,17.32,0,0,1,4.45-.35q60.71,0,121.41,0c6,0,8.71,1.8,8.65,5.77s-2.56,5.48-8.47,5.48Z" transform="translate(-768 -367.73)"/><path class="cls-1" d="M870.55,542.43h-60.7a27.45,27.45,0,0,1-3.74-.12,5.48,5.48,0,0,1-.83-10.67,16.8,16.8,0,0,1,4.43-.44q60.88,0,121.77,0a17.75,17.75,0,0,1,4.44.4c3,.81,4.27,2.95,3.94,5.95a5,5,0,0,1-4.87,4.8,33.36,33.36,0,0,1-3.74.09Z" transform="translate(-768 -367.73)"/><path class="cls-1" d="M870.57,419.42H810.24a33.08,33.08,0,0,1-4.11-.13,5.49,5.49,0,0,1-.87-10.69,12.92,12.92,0,0,1,3.68-.41q61.63,0,123.27,0a13,13,0,0,1,4,.48c2.74.9,3.9,3,3.61,5.82a5,5,0,0,1-4.49,4.77,25.6,25.6,0,0,1-4.11.16Z" transform="translate(-768 -367.73)"/><path class="cls-1" d="M846.19,449.3q-18.91,0-37.82,0c-4.46,0-7-2-7-5.46s2.61-5.77,7.2-5.77q38,0,76,0c4.35,0,7,2.16,7.07,5.56s-2.59,5.66-7.24,5.67Q865.29,449.32,846.19,449.3Z" transform="translate(-768 -367.73)"/><path class="cls-1" d="M895,513q-18.91,0-37.83,0c-4.62,0-7.31-2.16-7.26-5.7s2.66-5.53,7-5.53q38,0,76,0c4.63,0,7.13,2.16,7,5.87-.14,3.4-2.5,5.35-6.75,5.36C920.44,513,907.7,513,895,513Z" transform="translate(-768 -367.73)"/><path class="cls-1" d="M837,572.24c-9.49,0-19,0-28.46,0-4.64,0-7.28-2.15-7.23-5.72S804,561,808.72,561h56.55c4.7,0,7.21,2,7.17,5.68s-2.56,5.55-7.33,5.56C855.74,572.26,846.38,572.24,837,572.24Z" transform="translate(-768 -367.73)"/><path class="cls-1" d="M817.88,513c-3.37,0-6.73,0-10.1,0-4-.08-6.5-2.35-6.45-5.71s2.57-5.49,6.63-5.52q10.27-.06,20.56,0c4.27,0,6.92,2.27,6.85,5.7s-2.68,5.49-7,5.53C824.85,513,821.36,513,817.88,513Z" transform="translate(-768 -367.73)"/><path class="cls-1" d="M923,449.29c-3.62,0-7.23.07-10.85,0s-5.88-2.3-6-5.38a5.58,5.58,0,0,1,5.65-5.76c7.59-.16,15.2-.17,22.8,0a5.33,5.33,0,0,1,5.32,6c-.19,3.06-2.31,5.06-5.73,5.15C930.45,449.36,926.7,449.29,923,449.29Z" transform="translate(-768 -367.73)"/></svg>