<svg id="Calque_1" data-name="Calque 1" xmlns="http://www.w3.org/2000/svg" viewBox="0 0 145.07 225.1"><defs><style>.cls-1{fill:#fff;}</style></defs><path class="cls-1" d="M991.81,539.62l-31.47-27q-32.75-28.06-65.49-56.1c-4.58-3.92-7.25-8.64-6.55-14.74a15.26,15.26,0,0,1,9.84-13.09c6-2.46,11.58-1.43,16.47,2.67,8.14,6.83,16.16,13.8,24.22,20.71q43.29,37.08,86.6,74.12c5.38,4.6,8.5,10.12,6.42,17.12a19.74,19.74,0,0,1-5.65,8.95Q970.26,600.54,914,648.43a15.84,15.84,0,0,1-22.79-1.67c-5.88-7.06-4.87-16.67,2.5-23q47.55-40.75,95.11-81.48C989.79,541.5,990.67,540.65,991.81,539.62Z" transform="translate(-887.43 -427.39)"/></svg>