<svg id="Calque_1" data-name="Calque 1" xmlns="http://www.w3.org/2000/svg" viewBox="0 0 384 186.02"><defs><style>.cls-1{fill:#fff;}</style></defs><path class="cls-1" d="M768,537c3-9,9.4-12.12,18.7-12.1q154.23.24,308.47.1h5.35c-1.5-1.56-2.45-2.59-3.44-3.59q-24.3-24.19-48.62-48.38c-4.4-4.38-5.84-9.6-4.11-15.45a14.14,14.14,0,0,1,11-10.18c5.75-1.32,10.51.62,14.61,4.71q27.21,27.12,54.48,54.18c6.73,6.7,13.62,13.25,20.1,20.18,2.91,3.11,5,7,7.46,10.53v6c-2.46,3.54-4.46,7.53-7.45,10.53q-37,37.2-74.34,74.08c-6.62,6.58-15.22,7.19-21.46,1.63-6.66-5.93-6.86-15.64-.26-22.25q24.23-24.27,48.61-48.39a27.63,27.63,0,0,1,3.28-2.44l-.58-1.16h-4.26q-154.42,0-308.83.1c-9.3,0-15.68-3.1-18.71-12.1Z" transform="translate(-768 -446.99)"/></svg>