<svg id="Calque_1" data-name="Calque 1" xmlns="http://www.w3.org/2000/svg" viewBox="0 0 408.91 408.83"><defs><style>.cls-1{fill:#fff;}</style></defs><path class="cls-1" d="M744.6,137.42v24a33.69,33.69,0,0,0-.7,3.82,194.08,194.08,0,0,1-11.37,53.63A204.71,204.71,0,0,1,491.15,347.91c-105-25.66-172.35-130.75-151.76-236.84,7.9-40.69,26.34-75.88,55.47-105.28C425.4-25,462.1-44.46,505-51.85c7.7-1.33,15.5-2.11,23.25-3.15h24c5.39.64,10.8,1.19,16.17,2,40.31,5.69,75.94,21.79,106.44,48.73,35.93,31.73,58.4,71.21,66.67,118.55C742.8,121.91,743.57,129.69,744.6,137.42ZM676.56,267c60.8-69.53,61.15-181.38-15-251-75.72-69.19-192-61.73-259.17,17.25-64.87,76.32-48.86,178.56,1.69,233.53a139.51,139.51,0,0,1,31.66-59.27,141.83,141.83,0,0,1,56-38c-51.82-37.19-43.58-102.67-11.87-132.79C514.53,3.82,568,4.22,601.37,37.54c32.56,32.49,37,96.32-12.46,131.79C634,187.55,663.11,220,676.56,267Zm-133.2,62.83c4.08-.34,11.53-.72,18.91-1.59,34.29-4.08,64.7-17.35,91.5-39a5.4,5.4,0,0,0,1.55-4.23c-9.4-63.82-66.72-107.3-130.37-99A116.38,116.38,0,0,0,425,285.44a5,5,0,0,0,1.61,3.85C459.7,315.93,497.57,329.29,543.36,329.86ZM540.2,160.12A62.23,62.23,0,0,0,602.31,98.3c.24-34-27.94-62.26-62.11-62.26S477.85,64.29,478.08,98.3A62.24,62.24,0,0,0,540.2,160.12Z" transform="translate(-335.69 55)"/></svg>